<svg width="25" height="25" viewBox="0 0 25 25" fill="none" xmlns="http://www.w3.org/2000/svg">
<path d="M17.5046 8.62036C18.126 8.62036 18.6296 8.11668 18.6296 7.49536C18.6296 6.87404 18.126 6.37036 17.5046 6.37036C16.8833 6.37036 16.3796 6.87404 16.3796 7.49536C16.3796 8.11668 16.8833 8.62036 17.5046 8.62036Z" fill="#F9E8DA"/>
<path d="M12.5001 7.68579C11.548 7.68579 10.6172 7.96813 9.82555 8.49711C9.03388 9.02608 8.41685 9.77794 8.05249 10.6576C7.68812 11.5372 7.59279 12.5052 7.77854 13.439C7.96429 14.3729 8.42278 15.2306 9.09604 15.9039C9.7693 16.5772 10.6271 17.0357 11.5609 17.2214C12.4948 17.4072 13.4627 17.3118 14.3424 16.9475C15.222 16.5831 15.9739 15.9661 16.5028 15.1744C17.0318 14.3827 17.3142 13.452 17.3142 12.4999C17.3142 11.2231 16.807 9.99861 15.9042 9.0958C15.0013 8.19299 13.7769 7.68579 12.5001 7.68579ZM12.5001 15.6249C11.882 15.6249 11.2778 15.4416 10.7639 15.0982C10.25 14.7548 9.8495 14.2668 9.61298 13.6957C9.37645 13.1247 9.31457 12.4964 9.43515 11.8902C9.55572 11.284 9.85335 10.7272 10.2904 10.2901C10.7274 9.85311 11.2843 9.55548 11.8904 9.4349C12.4966 9.31432 13.125 9.37621 13.696 9.61273C14.267 9.84925 14.7551 10.2498 15.0984 10.7637C15.4418 11.2776 15.6251 11.8818 15.6251 12.4999C15.6251 13.3287 15.2959 14.1235 14.7098 14.7096C14.1238 15.2956 13.3289 15.6249 12.5001 15.6249Z" fill="#F9E8DA"/>
<path d="M12.5 4.81406C15.0031 4.81406 15.3 4.82344 16.2883 4.86875C16.8827 4.87581 17.4715 4.98495 18.0289 5.19141C18.4333 5.34742 18.8006 5.58636 19.1071 5.89287C19.4136 6.19939 19.6526 6.56667 19.8086 6.97109C20.0151 7.52854 20.1242 8.11731 20.1313 8.71172C20.1766 9.7 20.1859 9.99687 20.1859 12.5008C20.1859 15.0047 20.1766 15.3 20.1313 16.2883C20.1242 16.8827 20.0151 17.4715 19.8086 18.0289C19.6526 18.4333 19.4136 18.8006 19.1071 19.1071C18.8006 19.4136 18.4333 19.6526 18.0289 19.8086C17.4715 20.0151 16.8827 20.1242 16.2883 20.1313C15.3 20.1766 15.0031 20.1859 12.5 20.1859C9.99687 20.1859 9.7 20.1766 8.71172 20.1313C8.11731 20.1242 7.52854 20.0151 6.97109 19.8086C6.56667 19.6526 6.19939 19.4136 5.89287 19.1071C5.58636 18.8006 5.34742 18.4333 5.19141 18.0289C4.98495 17.4715 4.87581 16.8827 4.86875 16.2883C4.82344 15.3 4.81406 15.0031 4.81406 12.5C4.81406 9.99687 4.82344 9.7 4.86875 8.71172C4.87581 8.11731 4.98495 7.52854 5.19141 6.97109C5.34742 6.56667 5.58636 6.19939 5.89287 5.89287C6.19939 5.58636 6.56667 5.34742 6.97109 5.19141C7.52854 4.98495 8.11731 4.87581 8.71172 4.86875C9.7 4.82344 9.99687 4.81406 12.5 4.81406ZM12.5 3.125C9.95391 3.125 9.63438 3.13594 8.63438 3.18125C7.85685 3.19695 7.08762 3.34435 6.35938 3.61719C5.7365 3.85804 5.17083 4.22639 4.69861 4.69861C4.22639 5.17083 3.85804 5.7365 3.61719 6.35938C3.34426 7.08787 3.19686 7.85737 3.18125 8.63516C3.13594 9.63516 3.125 9.95312 3.125 12.5C3.125 15.0469 3.13594 15.3656 3.18125 16.3656C3.19695 17.1431 3.34435 17.9124 3.61719 18.6406C3.85804 19.2635 4.22639 19.8292 4.69861 20.3014C5.17083 20.7736 5.7365 21.142 6.35938 21.3828C7.08787 21.6557 7.85737 21.8031 8.63516 21.8188C9.63516 21.8641 9.95391 21.875 12.5 21.875C15.0461 21.875 15.3656 21.8641 16.3656 21.8188C17.1434 21.8031 17.9129 21.6557 18.6414 21.3828C19.2643 21.142 19.83 20.7736 20.3022 20.3014C20.7744 19.8292 21.1427 19.2635 21.3836 18.6406C21.6562 17.9121 21.8034 17.1426 21.8188 16.3648C21.8641 15.3648 21.875 15.0469 21.875 12.5C21.875 9.95312 21.8641 9.63438 21.8188 8.63438C21.803 7.85685 21.6556 7.08762 21.3828 6.35938C21.142 5.7365 20.7736 5.17083 20.3014 4.69861C19.8292 4.22639 19.2635 3.85804 18.6406 3.61719C17.9121 3.34453 17.1426 3.19739 16.3648 3.18203C15.3648 3.13516 15.0469 3.125 12.5 3.125Z" fill="#F9E8DA"/>
</svg>
