<svg aria-hidden="true" style="position: absolute; width: 0; height: 0; overflow: hidden;" version="1.1" xmlns="http://www.w3.org/2000/svg" xmlns:xlink="http://www.w3.org/1999/xlink">
<defs>
<symbol id="icon-cancel_black_48dp" viewBox="0 0 32 32">
<path d="M16 2.667c-7.373 0-13.333 5.96-13.333 13.333s5.96 13.333 13.333 13.333 13.333-5.96 13.333-13.333-5.96-13.333-13.333-13.333zM22.667 20.787l-1.88 1.88-4.787-4.787-4.787 4.787-1.88-1.88 4.787-4.787-4.787-4.787 1.88-1.88 4.787 4.787 4.787-4.787 1.88 1.88-4.787 4.787 4.787 4.787z"></path>
<symbol id="icon-close_black_24dp" viewBox="0 0 32 32">
<path d="M25.333 8.547l-1.88-1.88-7.453 7.453-7.453-7.453-1.88 1.88 7.453 7.453-7.453 7.453 1.88 1.88 7.453-7.453 7.453 7.453 1.88-1.88-7.453-7.453z"></path>
</symbol>
</defs>
</svg>
